# xmcd
#
# Track frame offsets:
#	150
#	14685
#	28327
#	41887
#	55155
#	68427
#	83275
#	97420
#	110865
#	124640
#	139175
#	151637
#	164057
#	178617
#	191587
#	205965
#	220397
#	234937
#	248910
#	261387
#	274115
#	288140
#	300995
#
# Disc length: 4185 seconds
# Revision: 0
# Processed by: cddbd v1.5.2PL0 Copyright (c) Steve Scherf et al.
# Submitted via: dBpowerAMP V12.0
#
DISCID=50105717
DTITLE=Various Artist - Times Ain't Like They Used to Be, Vol. 2
DYEAR=1997
DGENRE=Old Time
TTITLE0=Earl Johnson and His Dixie Entertainers - John Henry Blues
TTITLE1=Allen Shaw - Moanin' the Blues
TTITLE2=Kahle Brewer and - Lonesome Road Blues
TTITLE3=Bobby Leecan and His Need More Band - Washboard Cut Out
TTITLE4=Henry Thomas - Bob McKinney
TTITLE5=Fiddlin' John Carson and His Virginia Reelers - Swanee River
TTITLE6=Richard" Rabbit" Brown - James Alley Blues
TTITLE7=Uncle Dave Macon and His Fruit Jar Drinkers - Sail Away Ladies
TTITLE8=Cannon's Jug Stompers - The Rooster's Crowing Blues
TTITLE9=A.A. Gray and Seven Foot Dilly - Tallapoosa Bound
TTITLE10=The Shelor Family - Billy Grimes, the Rover
TTITLE11=The Massey Family - Brown Skin Girl Down the Lane
TTITLE12=Joe McCoy - You Know You Done Me Wrong
TTITLE13=Sid Harkreader and Gradey Moore - Old Joe
TTITLE14=Blind Alfred Reed - Beware
TTITLE15=Wilmer Watts and The Lonely Eagles - Knocking Down Casey Jones
TTITLE16=Tommie Bradley - Four Day Blues
TTITLE17=The Georgia Crackers - Riley the Furniture Man
TTITLE18=Emmett Lundy and Ernest V. Stoneman - Piney Woods Girl
TTITLE19=Louie Bluie - State Street Rag
TTITLE20=The Tweedy Brothers - Sugar in the Ground
TTITLE21=Southern Moonlight Entertainers - Then I'll Move to Town
TTITLE22=Rev. D.C. Rice - Lord Keep Me With a Mind
EXTD=
EXTT0=
EXTT1=
EXTT2=
EXTT3=
EXTT4=
EXTT5=
EXTT6=
EXTT7=
EXTT8=
EXTT9=
EXTT10=
EXTT11=
EXTT12=
EXTT13=
EXTT14=
EXTT15=
EXTT16=
EXTT17=
EXTT18=
EXTT19=
EXTT20=
EXTT21=
EXTT22=
PLAYORDER=
